<?xml version="1.0" encoding="UTF-8" standalone="no"?>
<svg width="594.021mm" height="420.031mm"
 viewBox="0 0 7016 4961"
 xmlns="http://www.w3.org/2000/svg" xmlns:xlink="http://www.w3.org/1999/xlink"  version="1.2" baseProfile="tiny">
<defs>
</defs>
<g fill="none" stroke="black" stroke-width="1" fill-rule="evenodd" stroke-linecap="square" stroke-linejoin="bevel" >

<g fill="#ffffff" fill-opacity="1" stroke="none" transform="matrix(1,0,0,1,0,0)"
font-family="Arial" font-size="12" font-weight="400" font-style="normal" 
>
<rect x="0" y="0" width="7016" height="4961"/>
</g>

<g fill="none" stroke="#000000" stroke-opacity="1" stroke-width="1" stroke-linecap="square" stroke-linejoin="bevel" transform="matrix(1,0,0,1,0,0)"
font-family="Arial" font-size="12" font-weight="400" font-style="normal" 
>
</g>

<g fill="#000000" fill-opacity="1" stroke="#000000" stroke-opacity="1" stroke-width="1" stroke-linecap="butt" stroke-linejoin="miter" stroke-miterlimit="2" transform="matrix(1,0,0,1,0,0)"
font-family="Arial" font-size="12" font-weight="400" font-style="normal" 
>
</g>

<g fill="#000000" fill-opacity="1" stroke="#000000" stroke-opacity="1" stroke-width="5" stroke-linecap="round" stroke-linejoin="bevel" transform="matrix(1,0,0,1,0,0)"
font-family="Arial" font-size="12" font-weight="400" font-style="normal" 
>
<polyline fill="none" vector-effect="none" points="2167.15,4460.68 4824.73,4460.68 " />
<polyline fill="none" vector-effect="none" points="4942.84,4342.57 4942.68,4348.75 4942.19,4354.91 4941.39,4361.04 4940.26,4367.12 4938.82,4373.14 4937.06,4379.06 4935,4384.89 4932.63,4390.61 4929.97,4396.19 4927.02,4401.62 4923.78,4406.9 4920.28,4411.99 4916.52,4416.9 4912.5,4421.6 4908.25,4426.09 4903.76,4430.34 4899.06,4434.36 4894.15,4438.12 4889.06,4441.62 4883.78,4444.86 4878.35,4447.81 4872.77,4450.47 4867.05,4452.83 4861.23,4454.9 4855.3,4456.66 4849.28,4458.1 4843.2,4459.23 4837.07,4460.03 4830.91,4460.52 4824.73,4460.68 " />
<polyline fill="none" vector-effect="none" points="4942.84,4342.57 4942.84,503.845 " />
<polyline fill="none" vector-effect="none" points="4942.84,503.845 4942.68,497.663 4942.19,491.499 4941.39,485.368 4940.26,479.288 4938.82,473.275 4937.06,467.346 4935,461.517 4932.63,455.804 4929.97,450.222 4927.02,444.788 4923.78,439.515 4920.28,434.419 4916.52,429.513 4912.5,424.811 4908.25,420.326 4903.76,416.069 4899.06,412.053 4894.15,408.288 4889.06,404.786 4883.78,401.555 4878.35,398.604 4872.77,395.942 4867.05,393.576 4861.23,391.512 4855.3,389.755 4849.28,388.312 4843.2,387.185 4837.07,386.378 4830.91,385.892 4824.73,385.731 " />
<polyline fill="none" vector-effect="none" points="4824.73,385.731 2167.15,385.731 " />
<polyline fill="none" vector-effect="none" points="2049.04,503.845 2049.2,497.663 2049.68,491.499 2050.49,485.368 2051.62,479.288 2053.06,473.275 2054.82,467.346 2056.88,461.517 2059.25,455.804 2061.91,450.222 2064.86,444.788 2068.09,439.515 2071.59,434.419 2075.36,429.513 2079.37,424.811 2083.63,420.326 2088.12,416.069 2092.82,412.053 2097.72,408.288 2102.82,404.786 2108.09,401.555 2113.53,398.604 2119.11,395.942 2124.82,393.576 2130.65,391.512 2136.58,389.755 2142.59,388.312 2148.67,387.185 2154.8,386.378 2160.97,385.892 2167.15,385.731 " />
<polyline fill="none" vector-effect="none" points="2049.04,503.845 2049.04,4342.57 " />
<polyline fill="none" vector-effect="none" points="2049.04,4342.57 2049.2,4348.75 2049.68,4354.91 2050.49,4361.04 2051.62,4367.12 2053.06,4373.14 2054.82,4379.06 2056.88,4384.89 2059.25,4390.61 2061.91,4396.19 2064.86,4401.62 2068.09,4406.9 2071.59,4411.99 2075.36,4416.9 2079.37,4421.6 2083.63,4426.09 2088.12,4430.34 2092.82,4434.36 2097.72,4438.12 2102.82,4441.62 2108.09,4444.86 2113.53,4447.81 2119.11,4450.47 2124.82,4452.83 2130.65,4454.9 2136.58,4456.66 2142.59,4458.1 2148.67,4459.23 2154.8,4460.03 2160.97,4460.52 2167.15,4460.68 " />
</g>

<g fill="none" stroke="#000000" stroke-opacity="1" stroke-width="1" stroke-linecap="square" stroke-linejoin="bevel" transform="matrix(1,0,0,1,0,0)"
font-family="Arial" font-size="12" font-weight="400" font-style="normal" 
>
</g>
</g>
</svg>
