<?xml version="1.0" encoding="UTF-8" standalone="no"?>
<svg width="594.021mm" height="420.031mm"
 viewBox="0 0 7016 4961"
 xmlns="http://www.w3.org/2000/svg" xmlns:xlink="http://www.w3.org/1999/xlink"  version="1.2" baseProfile="tiny">
<defs>
</defs>
<g fill="none" stroke="black" stroke-width="1" fill-rule="evenodd" stroke-linecap="square" stroke-linejoin="bevel" >

<g fill="#ffffff" fill-opacity="1" stroke="none" transform="matrix(1,0,0,1,0,0)"
font-family="Arial" font-size="12" font-weight="400" font-style="normal" 
>
<rect x="0" y="0" width="7016" height="4961"/>
</g>

<g fill="none" stroke="#000000" stroke-opacity="1" stroke-width="1" stroke-linecap="square" stroke-linejoin="bevel" transform="matrix(1,0,0,1,0,0)"
font-family="Arial" font-size="12" font-weight="400" font-style="normal" 
>
</g>

<g fill="#000000" fill-opacity="1" stroke="#000000" stroke-opacity="1" stroke-width="1" stroke-linecap="butt" stroke-linejoin="miter" stroke-miterlimit="2" transform="matrix(1,0,0,1,0,0)"
font-family="Arial" font-size="12" font-weight="400" font-style="normal" 
>
</g>

<g fill="#000000" fill-opacity="1" stroke="#000000" stroke-opacity="1" stroke-width="5" stroke-linecap="round" stroke-linejoin="bevel" transform="matrix(1,0,0,1,0,0)"
font-family="Arial" font-size="12" font-weight="400" font-style="normal" 
>
<polyline fill="none" vector-effect="none" points="2003.69,739.448 2003.69,503.219 " />
<polyline fill="none" vector-effect="none" points="1944.63,326.047 4661.26,326.047 " />
<polyline fill="none" vector-effect="none" points="4602.2,4271.07 4602.2,4034.84 " />
<polyline fill="none" vector-effect="none" points="2003.69,3999.41 2003.69,3763.18 " />
<polyline fill="none" vector-effect="none" points="2003.69,3727.74 2003.69,3491.51 " />
<polyline fill="none" vector-effect="none" points="2003.69,3456.08 2003.69,3219.85 " />
<polyline fill="none" vector-effect="none" points="2003.69,3184.42 2003.69,2948.19 " />
<polyline fill="none" vector-effect="none" points="2003.69,2912.75 2003.69,2676.52 " />
<polyline fill="none" vector-effect="none" points="2003.69,2641.09 2003.69,2404.86 " />
<polyline fill="none" vector-effect="none" points="2003.69,2369.43 2003.69,2133.2 " />
<polyline fill="none" vector-effect="none" points="2003.69,2097.76 2003.69,1861.54 " />
<polyline fill="none" vector-effect="none" points="2003.69,1826.1 2003.69,1589.87 " />
<polyline fill="none" vector-effect="none" points="2003.69,1554.44 2003.69,1318.21 " />
<polyline fill="none" vector-effect="none" points="2003.69,1282.77 2003.69,1046.55 " />
<polyline fill="none" vector-effect="none" points="2003.69,1011.11 2003.69,774.882 " />
<polyline fill="none" vector-effect="none" points="4779.38,444.161 4779.21,437.98 4778.73,431.815 4777.92,425.684 4776.8,419.604 4775.35,413.591 4773.6,407.662 4771.53,401.833 4769.16,396.12 4766.5,390.538 4763.55,385.104 4760.32,379.832 4756.82,374.735 4753.05,369.829 4749.04,365.127 4744.78,360.642 4740.3,356.385 4735.59,352.369 4730.69,348.605 4725.59,345.102 4720.32,341.871 4714.88,338.921 4709.3,336.258 4703.59,333.892 4697.76,331.828 4691.83,330.072 4685.82,328.628 4679.74,327.501 4673.61,326.694 4667.44,326.209 4661.26,326.047 " />
<polyline fill="none" vector-effect="none" points="4779.38,444.161 4779.38,4341.94 " />
<polyline fill="none" vector-effect="none" points="4779.38,4341.94 4779.21,4348.12 4778.73,4354.29 4777.92,4360.42 4776.8,4366.5 4775.35,4372.51 4773.6,4378.44 4771.53,4384.27 4769.16,4389.98 4766.5,4395.56 4763.55,4401 4760.32,4406.27 4756.82,4411.37 4753.05,4416.27 4749.04,4420.97 4744.78,4425.46 4740.3,4429.72 4735.59,4433.73 4730.69,4437.5 4725.59,4441 4720.32,4444.23 4714.88,4447.18 4709.3,4449.84 4703.59,4452.21 4697.76,4454.27 4691.83,4456.03 4685.82,4457.47 4679.74,4458.6 4673.61,4459.41 4667.44,4459.89 4661.26,4460.05 " />
<polyline fill="none" vector-effect="none" points="4661.26,4460.05 1944.63,4460.05 " />
<polyline fill="none" vector-effect="none" points="1826.51,4341.94 1826.68,4348.12 1827.16,4354.29 1827.97,4360.42 1829.1,4366.5 1830.54,4372.51 1832.3,4378.44 1834.36,4384.27 1836.73,4389.98 1839.39,4395.56 1842.34,4401 1845.57,4406.27 1849.07,4411.37 1852.84,4416.27 1856.85,4420.97 1861.11,4425.46 1865.59,4429.72 1870.3,4433.73 1875.2,4437.5 1880.3,4441 1885.57,4444.23 1891.01,4447.18 1896.59,4449.84 1902.3,4452.21 1908.13,4454.27 1914.06,4456.03 1920.07,4457.47 1926.15,4458.6 1932.28,4459.41 1938.45,4459.89 1944.63,4460.05 " />
<polyline fill="none" vector-effect="none" points="1826.51,4341.94 1826.51,444.161 " />
<polyline fill="none" vector-effect="none" points="1826.51,444.161 1826.68,437.98 1827.16,431.815 1827.97,425.684 1829.1,419.604 1830.54,413.591 1832.3,407.662 1834.36,401.833 1836.73,396.12 1839.39,390.538 1842.34,385.104 1845.57,379.832 1849.07,374.735 1852.84,369.829 1856.85,365.127 1861.11,360.642 1865.59,356.385 1870.3,352.369 1875.2,348.605 1880.3,345.102 1885.57,341.871 1891.01,338.921 1896.59,336.258 1902.3,333.892 1908.13,331.828 1914.06,330.072 1920.07,328.628 1926.15,327.501 1932.28,326.694 1938.45,326.209 1944.63,326.047 " />
<polyline fill="none" vector-effect="none" points="2003.69,4034.84 4602.2,4034.84 " />
<polyline fill="none" vector-effect="none" points="2003.69,4271.07 2003.69,4034.84 " />
<polyline fill="none" vector-effect="none" points="2003.69,4271.07 4602.2,4271.07 " />
<polyline fill="none" vector-effect="none" points="2003.69,3999.41 4602.2,3999.41 " />
<polyline fill="none" vector-effect="none" points="4602.2,3999.41 4602.2,3763.18 " />
<polyline fill="none" vector-effect="none" points="4602.2,3763.18 2003.69,3763.18 " />
<polyline fill="none" vector-effect="none" points="2003.69,3727.74 4602.2,3727.74 " />
<polyline fill="none" vector-effect="none" points="4602.2,3727.74 4602.2,3491.51 " />
<polyline fill="none" vector-effect="none" points="4602.2,3491.51 2003.69,3491.51 " />
<polyline fill="none" vector-effect="none" points="2003.69,3456.08 4602.2,3456.08 " />
<polyline fill="none" vector-effect="none" points="4602.2,3456.08 4602.2,3219.85 " />
<polyline fill="none" vector-effect="none" points="4602.2,3219.85 2003.69,3219.85 " />
<polyline fill="none" vector-effect="none" points="2003.69,3184.42 4602.2,3184.42 " />
<polyline fill="none" vector-effect="none" points="4602.2,3184.42 4602.2,2948.19 " />
<polyline fill="none" vector-effect="none" points="4602.2,2948.19 2003.69,2948.19 " />
<polyline fill="none" vector-effect="none" points="2003.69,2912.75 4602.2,2912.75 " />
<polyline fill="none" vector-effect="none" points="4602.2,2912.75 4602.2,2676.52 " />
<polyline fill="none" vector-effect="none" points="4602.2,2676.52 2003.69,2676.52 " />
<polyline fill="none" vector-effect="none" points="2003.69,2641.09 4602.2,2641.09 " />
<polyline fill="none" vector-effect="none" points="4602.2,2641.09 4602.2,2404.86 " />
<polyline fill="none" vector-effect="none" points="4602.2,2404.86 2003.69,2404.86 " />
<polyline fill="none" vector-effect="none" points="2003.69,2369.43 4602.2,2369.43 " />
<polyline fill="none" vector-effect="none" points="4602.2,2369.43 4602.2,2133.2 " />
<polyline fill="none" vector-effect="none" points="4602.2,2133.2 2003.69,2133.2 " />
<polyline fill="none" vector-effect="none" points="2003.69,2097.76 4602.2,2097.76 " />
<polyline fill="none" vector-effect="none" points="4602.2,2097.76 4602.2,1861.54 " />
<polyline fill="none" vector-effect="none" points="4602.2,1861.54 2003.69,1861.54 " />
<polyline fill="none" vector-effect="none" points="2003.69,1826.1 4602.2,1826.1 " />
<polyline fill="none" vector-effect="none" points="4602.2,1826.1 4602.2,1589.87 " />
<polyline fill="none" vector-effect="none" points="4602.2,1589.87 2003.69,1589.87 " />
<polyline fill="none" vector-effect="none" points="2003.69,1554.44 4602.2,1554.44 " />
<polyline fill="none" vector-effect="none" points="4602.2,1554.44 4602.2,1318.21 " />
<polyline fill="none" vector-effect="none" points="4602.2,1318.21 2003.69,1318.21 " />
<polyline fill="none" vector-effect="none" points="2003.69,1282.77 4602.2,1282.77 " />
<polyline fill="none" vector-effect="none" points="4602.2,1282.77 4602.2,1046.55 " />
<polyline fill="none" vector-effect="none" points="4602.2,1046.55 2003.69,1046.55 " />
<polyline fill="none" vector-effect="none" points="2003.69,1011.11 4602.2,1011.11 " />
<polyline fill="none" vector-effect="none" points="4602.2,1011.11 4602.2,774.882 " />
<polyline fill="none" vector-effect="none" points="4602.2,774.882 2003.69,774.882 " />
<polyline fill="none" vector-effect="none" points="2003.69,739.448 4602.2,739.448 " />
<polyline fill="none" vector-effect="none" points="4602.2,739.448 4602.2,503.219 " />
<polyline fill="none" vector-effect="none" points="4602.2,503.219 2003.69,503.219 " />
</g>

<g fill="none" stroke="#000000" stroke-opacity="1" stroke-width="1" stroke-linecap="square" stroke-linejoin="bevel" transform="matrix(1,0,0,1,0,0)"
font-family="Arial" font-size="12" font-weight="400" font-style="normal" 
>
</g>
</g>
</svg>
